<svg xmlns="http://www.w3.org/2000/svg" viewBox="0 0 32 32" fill="none">
  <!-- Background circle with gradient -->
  <circle cx="16" cy="16" r="15" fill="url(#gradient)" stroke="#1e40af" stroke-width="1"/>
  
  <!-- Warehouse/Inventory icon -->
  <!-- Base building -->
  <rect x="6" y="18" width="20" height="8" fill="#ffffff" stroke="#1e40af" stroke-width="0.5"/>
  
  <!-- Roof -->
  <polygon points="5,18 16,12 27,18" fill="#c49a2c" stroke="#b8860b" stroke-width="0.5"/>
  
  <!-- Door -->
  <rect x="14" y="20" width="4" height="6" fill="#1e40af"/>
  
  <!-- Windows -->
  <rect x="8" y="20" width="2" height="2" fill="#1e40af"/>
  <rect x="22" y="20" width="2" height="2" fill="#1e40af"/>
  
  <!-- Stack boxes inside -->
  <rect x="10" y="23" width="2" height="1.5" fill="#4a6fe3" opacity="0.8"/>
  <rect x="12.5" y="22" width="2" height="2.5" fill="#4a6fe3" opacity="0.6"/>
  <rect x="18" y="23" width="2" height="1.5" fill="#4a6fe3" opacity="0.8"/>
  <rect x="20.5" y="22" width="2" height="2.5" fill="#4a6fe3" opacity="0.6"/>
  
  <!-- Small trend line (supply chain indicator) -->
  <polyline points="7,10 12,8 17,9 22,6 27,7" fill="none" stroke="#c49a2c" stroke-width="1.5" opacity="0.9"/>
  <circle cx="7" cy="10" r="1" fill="#c49a2c"/>
  <circle cx="27" cy="7" r="1" fill="#c49a2c"/>
  
  <defs>
    <linearGradient id="gradient" x1="0%" y1="0%" x2="100%" y2="100%">
      <stop offset="0%" style="stop-color:#e0f2fe;stop-opacity:1" />
      <stop offset="100%" style="stop-color:#bae6fd;stop-opacity:1" />
    </linearGradient>
  </defs>
</svg>
